<svg role="img" viewBox="0 0 24 24" xmlns="http://www.w3.org/2000/svg"><title>Mailgun</title><path fill="#F06B54" d="M12 0C5.373 0 0 5.373 0 12s5.373 12 12 12 12-5.373 12-12S18.627 0 12 0zm.04 4.8c3.972 0 7.2 3.205 7.2 7.16 0 1.63-1.305 2.956-2.916 2.956-1.61 0-2.916-1.326-2.916-2.957V9.996a1.44 1.44 0 0 0-1.431-1.448 1.44 1.44 0 0 0-1.432 1.448v1.963a1.44 1.44 0 0 1-1.431 1.448 1.44 1.44 0 0 1-1.432-1.448V9.996c0-2.885 2.367-5.196 5.358-5.196zm-5.358 7.16v2.017c0 .823-.606 1.463-1.415 1.463-.794 0-1.431-.655-1.431-1.463V11.96c0-3.956 3.229-7.16 7.2-7.16v2.957c-2.299 0-4.354 1.912-4.354 4.203z"/></svg>
